<?xml version="1.0" encoding="utf-8"?>
<!-- Generator: Adobe Illustrator 22.1.0, SVG Export Plug-In . SVG Version: 6.00 Build 0)  -->
<svg version="1.1" id="Layer_1" xmlns="http://www.w3.org/2000/svg" xmlns:xlink="http://www.w3.org/1999/xlink" x="0px" y="0px"
	 viewBox="0 0 88 90" style="enable-background:new 0 0 88 90;" xml:space="preserve">
<style type="text/css">
	.st0{fill:#BBEDFF;}
</style>
<g>
	<path class="st0" d="M69.3,71.1c3.2-3.9,6-8.5,8.5-13.6c2.5-5.1,4.5-10.4,5.9-15.7h-19c-2.1,7.3-4.5,13.3-7.3,18l-17-16.5
		c6.1-3.5,10.6-7.3,13.3-11.2c2.7-3.9,4.1-8.3,4.1-13c0-5.8-2.2-10.4-6.7-13.8C46.8,1.7,40.9,0,33.5,0c-7.8,0-14,1.9-18.6,5.6
		c-4.6,3.7-7,8.6-7,14.6c0,3.7,0.7,7.1,2,10.2c1.4,3.1,3.5,6.4,6.5,9.8c-5.9,3.3-10,6.9-12.4,10.8C1.7,54.9,0.5,59.5,0.5,65
		c0,7.6,2.8,13.6,8.5,18.1c5.7,4.5,13.4,6.7,23.1,6.7c9.6,0,18.2-2.6,25.8-7.9l6.9,6.7h22.5L69.3,71.1z M21.6,56.6
		c1.3-1.9,3.2-3.7,5.5-5.5l19.8,19.7c-4,2.4-8.5,3.6-13.6,3.6c-4,0-7.3-1-9.9-3c-2.6-2-3.9-4.8-3.9-8.2
		C19.6,60.7,20.3,58.5,21.6,56.6z M38.3,27.4c-1.8,1.9-4.5,3.7-7.9,5.6c-3.8-4.2-5.7-8.1-5.7-11.6c0-2.3,0.8-4.2,2.3-5.4
		c1.5-1.3,3.6-1.9,6.3-1.9c2.3,0,4.1,0.6,5.6,1.8c1.4,1.2,2.1,2.9,2.1,5C41.1,23.4,40.2,25.5,38.3,27.4z"/>
</g>
</svg>
