<?xml version="1.0" encoding="utf-8"?>
<!-- Generator: Adobe Illustrator 22.1.0, SVG Export Plug-In . SVG Version: 6.00 Build 0)  -->
<svg version="1.1" id="Layer_1" xmlns="http://www.w3.org/2000/svg" xmlns:xlink="http://www.w3.org/1999/xlink" x="0px" y="0px"
	 viewBox="0 0 23 40" style="enable-background:new 0 0 23 40;" xml:space="preserve">
<style type="text/css">
	.st0{fill:#D4D4D4;}
</style>
<g>
	<path class="st0" d="M1,5l15.1,15L0.8,35.2l0,0c-0.5,0.5-0.8,1.2-0.8,2C0,38.7,1.3,40,2.9,40c0.8,0,1.5-0.3,2-0.8l0,0l17.3-17.1
		l0,0c0.5-0.5,0.9-1.2,0.9-2.1l0,0l0,0c0-0.8-0.3-1.5-0.9-2.1l0,0L4.9,0.8l0,0C4.3,0.3,3.6,0,2.9,0C1.3,0,0,1.3,0,2.9
		C0,3.7,0.4,4.5,1,5z"/>
</g>
</svg>
