<svg xmlns="http://www.w3.org/2000/svg" width="106" height="113" viewBox="0 0 106 113">
  <metadata><?xpacket begin="﻿" id="W5M0MpCehiHzreSzNTczkc9d"?>
<x:xmpmeta xmlns:x="adobe:ns:meta/" x:xmptk="Adobe XMP Core 5.6-c140 79.160451, 2017/05/06-01:08:21        ">
   <rdf:RDF xmlns:rdf="http://www.w3.org/1999/02/22-rdf-syntax-ns#">
      <rdf:Description rdf:about=""/>
   </rdf:RDF>
</x:xmpmeta>
                                                                                                    
                                                                                                    
                                                                                                    
                                                                                                    
                                                                                                    
                                                                                                    
                                                                                                    
                                                                                                    
                                                                                                    
                                                                                                    
                                                                                                    
                                                                                                    
                                                                                                    
                                                                                                    
                                                                                                    
                                                                                                    
                                                                                                    
                                                                                                    
                                                                                                    
                                                                                                    
                           
<?xpacket end="w"?></metadata>
<defs>
    <style>
      .cls-1 {
        fill: #545454;
      }

      .cls-1, .cls-10, .cls-2, .cls-3, .cls-4, .cls-5, .cls-6, .cls-7, .cls-8, .cls-9 {
        fill-rule: evenodd;
      }

      .cls-2 {
        fill: #d6d6d6;
      }

      .cls-3 {
        fill: #b0b0b0;
        opacity: 0.5;
      }

      .cls-4 {
        fill: #fd8d00;
      }

      .cls-5 {
        fill: #eee;
      }

      .cls-6 {
        fill: #fdcd0d;
      }

      .cls-7 {
        fill: #fdb705;
        opacity: 0.92;
      }

      .cls-8 {
        fill: #00bfc0;
      }

      .cls-9 {
        fill: #8b8b8b;
      }

      .cls-10 {
        fill: #fff;
      }
    </style>
  </defs>
  <path id="Path" class="cls-1" d="M12.158,103.705H79.339l7.37,9.014L3.654,113Z"/>
  <path id="Compound_Shape" data-name="Compound Shape" class="cls-2" d="M16.52,56.62L55.528,20.055l-5.1-5.07L10.618,51.9A11.078,11.078,0,0,1,16.52,56.62ZM42.772,105.4h10.2L16.341,68.268a11.073,11.073,0,0,1-6.293,4.613Z"/>
  <path id="Ellipse" class="cls-2" d="M0.252,62.3a6.8,6.8,0,1,1,6.8,6.76A6.781,6.781,0,0,1,.252,62.3Z"/>
  <path id="Path-2" data-name="Path" class="cls-3" d="M27.465,36.109l11.906-1.69L56.378,18.365,53.827,10.76Z"/>
  <path id="Ellipse-2" data-name="Ellipse" class="cls-4" d="M72.745,62.529c-1.793-.929,3.926-15.388,12.862-32.457,9.032-17.25,17.9-30.591,19.727-29.635s-4.115,15.829-13.176,33.051C83.192,50.53,74.539,63.46,72.745,62.529Z"/>
  <path id="Ellipse-3" data-name="Ellipse" class="cls-5" d="M83.2,40.68c-4.388-2.286-5.112-9.9-2.975-14s7.457-5.582,11.861-3.281,6.3,7.535,4.053,11.582C92.332,41.833,87.587,42.962,83.2,40.68Z"/>
  <path id="Path-3" data-name="Path" class="cls-6" d="M72.28,62.288l-7.2-29.37L44.94,18.9,52.085,4.876,75.2,13.382,105.184,0.113Z"/>
  <path id="Path-4" data-name="Path" class="cls-7" d="M51.742,5.248l11.9,13.267,11.792-5.328Z"/>
  <path id="Rectangle" class="cls-8" d="M65.733,107.928h6.8V113h-6.8v-5.07Z"/>
  <path id="Path-5" data-name="Path" class="cls-9" d="M21.512,108.085c-0.567,0,18.709-19.588,18.709-19.588L63.181,107.93S22.079,108.085,21.512,108.085Z"/>
  <path id="Ellipse-4" data-name="Ellipse" class="cls-10" d="M37.669,97.79a2.551,2.551,0,1,1,2.551,2.536A2.543,2.543,0,0,1,37.669,97.79Z"/>
  <path id="Path-6" data-name="Path" class="cls-3" d="M38.52,90.186L32.567,96.1l-1.7-13.519Z"/>
</svg>
