<?xml version="1.0" encoding="utf-8"?>
<!-- Generator: Adobe Illustrator 22.1.0, SVG Export Plug-In . SVG Version: 6.00 Build 0)  -->
<svg version="1.1" id="Layer_1" xmlns="http://www.w3.org/2000/svg" xmlns:xlink="http://www.w3.org/1999/xlink" x="0px" y="0px"
	 viewBox="0 0 25 25" style="enable-background:new 0 0 25 25;" xml:space="preserve">
<style type="text/css">
	.st0{fill-rule:evenodd;clip-rule:evenodd;fill:#6D6E71;}
</style>
<path class="st0" d="M24.5,22.1L24.5,22.1l-4.9-4.9c1.3-1.8,2.1-4,2.1-6.4c0-6-4.9-10.8-10.8-10.8C4.9,0,0,4.9,0,10.8
	c0,6,4.9,10.8,10.8,10.8c2.4,0,4.6-0.8,6.4-2.1l4.9,4.9l0,0c0.3,0.3,0.7,0.5,1.2,0.5c0.9,0,1.7-0.7,1.7-1.7
	C25,22.9,24.8,22.4,24.5,22.1z M3.3,10.8c0-4.1,3.4-7.5,7.5-7.5s7.5,3.4,7.5,7.5c0,4.1-3.4,7.5-7.5,7.5S3.3,15,3.3,10.8z"/>
</svg>
