<?xml version="1.0" encoding="utf-8"?>
<!-- Generator: Adobe Illustrator 22.1.0, SVG Export Plug-In . SVG Version: 6.00 Build 0)  -->
<svg version="1.1" id="Layer_1" xmlns="http://www.w3.org/2000/svg" xmlns:xlink="http://www.w3.org/1999/xlink" x="0px" y="0px"
	 viewBox="0 0 30 24" width="30" height="24" style="enable-background:new 0 0 30 24;" xml:space="preserve">
<style type="text/css">
	.st0{fill:#1FAAE2;}
</style>
<g>
	<path class="st0" d="M26.2,24H3.8C1.7,24,0,22.4,0,20.3V3.7C0,1.6,1.7,0,3.8,0h22.4c2,0,3.8,1.6,3.8,3.7v16.7
		C29.9,22.4,28.2,24,26.2,24z M4.7,1.8L15,10.7l10.3-8.8C25.3,1.8,4.7,1.8,4.7,1.8z M28,3.7c0-0.5-0.2-1-0.6-1.3L15,12.9L2.5,2.3
		C2.2,2.6,1.9,3.2,1.9,3.7v16.7c0,1,0.8,1.8,1.8,1.8h22.4c1,0,1.8-0.8,1.8-1.8V3.7H28z"/>
</g>
</svg>
