<?xml version="1.0" encoding="utf-8"?>
<!-- Generator: Adobe Illustrator 22.1.0, SVG Export Plug-In . SVG Version: 6.00 Build 0)  -->
<svg version="1.1" id="Layer_1" xmlns="http://www.w3.org/2000/svg" xmlns:xlink="http://www.w3.org/1999/xlink" x="0px" y="0px"
	 viewBox="0 0 25 34" style="enable-background:new 0 0 25 34;" xml:space="preserve">
<style type="text/css">
	.st0{fill:#6D6E71;}
</style>
<g>
	<path class="st0" d="M12.5,34C10.5,34,0,18.1,0,12.8C0,5.7,5.6,0,12.5,0S25,5.7,25,12.7C25,18,14.6,34,12.5,34z M12.5,2.1
		C6.8,2.1,2.1,6.9,2.1,12.8c0,4.4,8.7,18.1,10.4,18.1s10.4-13.7,10.4-18.1C22.9,6.9,18.3,2.1,12.5,2.1z M12.5,18.1
		c-2.9,0-5.2-2.4-5.2-5.3s2.3-5.3,5.2-5.3s5.2,2.4,5.2,5.3S15.4,18.1,12.5,18.1z M12.5,9.6c-1.7,0-3.1,1.4-3.1,3.2s1.4,3.2,3.1,3.2
		s3.1-1.4,3.1-3.2C15.6,11,14.3,9.6,12.5,9.6z"/>
</g>
</svg>
