<?xml version="1.0" encoding="utf-8"?>
<!-- Generator: Adobe Illustrator 22.1.0, SVG Export Plug-In . SVG Version: 6.00 Build 0)  -->
<svg version="1.1" id="Layer_1" xmlns="http://www.w3.org/2000/svg" xmlns:xlink="http://www.w3.org/1999/xlink" x="0px" y="0px"
	 viewBox="0 0 29 29" style="enable-background:new 0 0 29 29;" xml:space="preserve">
<style type="text/css">
	.st0{fill:#6D6E71;}
</style>
<path class="st0" d="M28.4,22.7l-5.3-4c-0.9-0.6-1.9-0.7-2.7,0l-1.6,1.6c-1.8-1.4-3.9-3.1-5.8-4.9c-1.6-1.6-3.1-3.4-4.3-5.1l1.6-1.6
	C11,8,10.9,6.9,10.3,6l-4-5.4c-0.6-0.8-1.8-0.8-2.5,0L1.1,3.2c-1.5,1.5-0.8,3.3,0,5.4c0,0,3.7,6.3,8.4,11.1c5,5.1,10.9,8.4,10.9,8.4
	c1.9,1,3.9,1.5,5.3,0l2.7-2.7C29.1,24.7,29.3,23.3,28.4,22.7z M26.3,24.9l-1.7,1.7c-0.5,0.4-2.2,0.4-2.8,0.1c0,0-7.9-5-11.3-8.7
	c-2.9-3-6.4-7.7-8-10.7C2.1,6.6,1.9,5.1,2.6,4.5l1.7-1.7c0.5-0.5,1.2-0.6,1.7,0l2.5,3.3c0.4,0.6,0.5,1.2,0,1.7L6.4,10
	c4.3,7.2,12.2,12.4,12.7,12.7l2.1-2.1c0.5-0.5,1.1-0.4,1.7,0l3.4,2.6C26.8,23.6,26.7,24.3,26.3,24.9z"/>
</svg>
