<svg xmlns="http://www.w3.org/2000/svg" width="95" height="116" viewBox="0 0 95 116">
  <metadata><?xpacket begin="﻿" id="W5M0MpCehiHzreSzNTczkc9d"?>
<x:xmpmeta xmlns:x="adobe:ns:meta/" x:xmptk="Adobe XMP Core 5.6-c140 79.160451, 2017/05/06-01:08:21        ">
   <rdf:RDF xmlns:rdf="http://www.w3.org/1999/02/22-rdf-syntax-ns#">
      <rdf:Description rdf:about=""/>
   </rdf:RDF>
</x:xmpmeta>
                                                                                                    
                                                                                                    
                                                                                                    
                                                                                                    
                                                                                                    
                                                                                                    
                                                                                                    
                                                                                                    
                                                                                                    
                                                                                                    
                                                                                                    
                                                                                                    
                                                                                                    
                                                                                                    
                                                                                                    
                                                                                                    
                                                                                                    
                                                                                                    
                                                                                                    
                                                                                                    
                           
<?xpacket end="w"?></metadata>
<defs>
    <style>
      .cls-1 {
        fill: #b25900;
      }

      .cls-1, .cls-2, .cls-3, .cls-4 {
        fill-rule: evenodd;
      }

      .cls-2 {
        fill: #00bfc0;
      }

      .cls-3 {
        fill: #48cebb;
      }

      .cls-4 {
        fill: #c76300;
      }
    </style>
  </defs>
  <path id="Path" class="cls-1" d="M60.333,67.917L52.077,84.472H45.248C49,105,37.137,116,37.137,116l31.39-.048C59.564,105.022,60.333,67.917,60.333,67.917Z"/>
  <path id="Path-2" data-name="Path" class="cls-2" d="M85.5,22.594C57.031,28.268,54.921,40.186,54.921,40.186c-3.883,8.938-2.058,21.03-2.058,21.03,5.366-1.808,9.829-7.093,9.829-7.093,4.357-5.96,7.47-14.977,7.47-14.977-1.77,12.814-5.111,16.948-5.111,16.948-3.514,4.371-9.829,7.093-9.829,7.093a21.43,21.43,0,0,0,15.727-2.363c6.7-3.289,7.863-13.4,7.863-13.4Z"/>
  <path id="Path-3" data-name="Path" class="cls-3" d="M70.949,4.858C55.716,7.9,54.587,14.289,54.587,14.289c-2.078,4.794-1.1,11.276-1.1,11.276a14.12,14.12,0,0,0,5.26-3.8,36.267,36.267,0,0,0,4-8.029c-0.947,6.869-2.735,9.086-2.735,9.086a15.817,15.817,0,0,1-5.26,3.8,11.454,11.454,0,0,0,8.416-1.268c3.583-1.764,4.208-7.184,4.208-7.184Z"/>
  <path id="Path-4" data-name="Path" class="cls-2" d="M91,67.039c-9.9-5.675-13.583-2.653-13.583-2.653-3.452,1.679-6.075,5.818-6.075,5.818a10.109,10.109,0,0,0,4.741.428,26.474,26.474,0,0,0,6.095-2.591c-3.847,3.435-5.913,3.815-5.913,3.815a11.311,11.311,0,0,1-4.749-.43,8.264,8.264,0,0,0,5.256,3.449c2.853,0.775,5.837-2.027,5.837-2.027Z"/>
  <path id="Path-5" data-name="Path" class="cls-2" d="M83.836,12.2c-7.486-1.626-9.289,1.029-9.289,1.029a12.964,12.964,0,0,0-2.866,4.98,6.69,6.69,0,0,0,3.131-.659,18.364,18.364,0,0,0,3.468-2.914c-1.855,3.024-3.128,3.689-3.128,3.689A7.44,7.44,0,0,1,72,18.983a5.359,5.359,0,0,0,4.036,1.26c2.022-.046,3.445-2.526,3.445-2.526Z"/>
  <path id="Path-6" data-name="Path" class="cls-3" d="M94.836,48.2c-7.486-1.626-9.289,1.029-9.289,1.029a12.963,12.963,0,0,0-2.866,4.98,6.684,6.684,0,0,0,3.131-.658,18.338,18.338,0,0,0,3.468-2.914c-1.855,3.025-3.128,3.689-3.128,3.689A7.45,7.45,0,0,1,83,54.982a5.359,5.359,0,0,0,4.036,1.26c2.022-.046,3.445-2.526,3.445-2.526Z"/>
  <path id="Path-7" data-name="Path" class="cls-2" d="M0.681,45.2c7.486-1.626,9.289,1.03,9.289,1.03a12.964,12.964,0,0,1,2.866,4.98,6.693,6.693,0,0,1-3.131-.658,18.351,18.351,0,0,1-3.468-2.915c1.855,3.025,3.128,3.689,3.128,3.689a7.439,7.439,0,0,0,3.148.657,5.362,5.362,0,0,1-4.036,1.26c-2.022-.046-3.445-2.526-3.445-2.526Z"/>
  <path id="Path-8" data-name="Path" class="cls-2" d="M48.21,0C42.924,5.734,44.3,8.651,44.3,8.651a12.843,12.843,0,0,0,2.842,5.02A6.834,6.834,0,0,0,48.187,10.6a18.368,18.368,0,0,0-.737-4.505c1.668,3.148,1.586,4.6,1.586,4.6a7.623,7.623,0,0,1-1.059,3.086,5.539,5.539,0,0,0,3.184-2.9c1.006-1.793-.411-4.289-0.411-4.289Z"/>
  <path id="Path-9" data-name="Path" class="cls-3" d="M6,63.455C21.544,58,26.014,63.336,26.014,63.336,30.5,66.653,33,73.137,33,73.137a15.181,15.181,0,0,1-6.884-.706,38.468,38.468,0,0,1-7.928-5.226c4.511,5.771,7.322,6.851,7.322,6.851a17.065,17.065,0,0,0,6.867.709,12.312,12.312,0,0,1-8.427,3.225c-4.184.256-7.611-4.308-7.611-4.308Z"/>
  <path id="Path-10" data-name="Path" class="cls-2" d="M26.521,8.011c20.5,6.9,21.031,15.885,21.031,15.885,2.095,6.959-.29,15.7-0.29,15.7-3.8-1.845-6.637-6.167-6.637-6.167A50.875,50.875,0,0,1,36.4,21.676c0.2,9.614,2.312,12.981,2.312,12.981,2.215,3.556,6.637,6.166,6.637,6.166a16.064,16.064,0,0,1-11.392-3.242c-4.654-3.063-4.646-10.628-4.646-10.628Z"/>
  <path id="Path-11" data-name="Path" class="cls-3" d="M10.795,10.376c11.781,3.967,12.086,9.134,12.086,9.134,1.2,4-.167,9.028-0.167,9.028A11.475,11.475,0,0,1,18.9,24.992a29.263,29.263,0,0,1-2.425-6.76C16.592,23.763,17.8,25.7,17.8,25.7a12.854,12.854,0,0,0,3.814,3.546,9.228,9.228,0,0,1-6.547-1.864c-2.675-1.762-2.67-6.112-2.67-6.112Z"/>
  <path id="Path-12" data-name="Path" class="cls-2" d="M14.3,36.782c28.465,5.675,30.574,17.593,30.574,17.593,3.883,8.937,2.058,21.03,2.058,21.03C41.565,73.6,37.1,68.312,37.1,68.312c-4.358-5.96-7.47-14.977-7.47-14.977,1.77,12.812,5.111,16.948,5.111,16.948,3.514,4.371,9.829,7.094,9.829,7.094a21.432,21.432,0,0,1-15.726-2.364c-6.7-3.289-7.863-13.4-7.863-13.4Z"/>
  <path id="Path-13" data-name="Path" class="cls-4" d="M52,85c5.913,5.233,11,17,11,17-4.475-13.6-3.179-33.648-3.179-33.648A162.979,162.979,0,0,1,52,85Z"/>
</svg>
